<svg version="1.1" xmlns="http://www.w3.org/2000/svg" xmlns:xlink="http://www.w3.org/1999/xlink" width="276.98864" height="276.98864" viewBox="0,0,276.98864,276.98864"><g transform="translate(-101.50568,-41.50568)"><g data-paper-data="{&quot;isPaintingLayer&quot;:true}" fill-rule="nonzero" stroke-linecap="butt" stroke-linejoin="miter" stroke-miterlimit="10" stroke-dasharray="" stroke-dashoffset="0" style="mix-blend-mode: normal"><path d="M101.50568,180c0,-76.4883 62.00602,-138.49432 138.49432,-138.49432c76.4883,0 138.49432,62.00602 138.49432,138.49432c0,76.4883 -62.00602,138.49432 -138.49432,138.49432c-76.4883,0 -138.49432,-62.00602 -138.49432,-138.49432z" fill="#b200ff" stroke="none" stroke-width="0"/><g><path d="M276.38724,171.20914c-5.09295,14.31499 -18.60702,22.82359 -39.27705,25.48005c-0.17126,0.02176 -0.34212,0.04216 -0.51264,0.06118c-1.18489,1.33102 -2.55061,2.50779 -4.06574,3.49795c-5.23222,3.40096 -10.34284,5.12998 -15.52346,5.12998c-12.68811,0 -22.71285,-10.12407 -22.71285,-25.64871c0,-0.80913 0.02512,-1.76025 2.22265,-4.94991l-1.66672,0.35733l-0.41397,0.39197c-0.00501,0.09159 0.03299,-0.55926 0.06094,-1.06718c-0.21442,-1.19866 -0.32368,-2.40308 -0.32368,-3.61134v-6.60139c0,-1.25889 0.11074,-2.51576 0.33113,-3.76728c0.01445,-0.63835 0.03991,-1.31513 0.07617,-2.02722c-0.34217,-1.506 -0.52808,-3.0424 -0.52808,-4.63955c0,-0.92962 0.06702,-1.86978 0.19787,-2.83852c0.53254,-3.8182 1.96848,-7.50096 4.19598,-10.67104c-0.56485,-2.32342 -0.85185,-4.71176 -0.85185,-7.12659v-6.95602c0,-3.87251 0.88924,-8.23279 3.46714,-16.60275c1.32612,-4.42949 1.6326,-5.36954 2.20668,-6.63021c2.76762,-6.31261 7.00574,-10.56114 11.95788,-13.10155c5.4776,-2.77635 11.37544,-4.19459 17.47814,-4.19459c2.03889,0 4.03804,0.15683 5.99352,0.46777c0.68229,-0.37337 1.38106,-0.71101 2.08955,-1.01093c1.84474,-0.80622 3.79743,-1.36603 5.85538,-1.69766c5.513,-0.96077 11.27629,0.21932 16.24852,3.28702c7.08849,4.39456 11.28177,12.15808 10.68572,23.34616c-0.0982,1.99696 -0.26442,4.61071 -0.51156,8.00463c-0.10822,1.19166 -0.23143,2.58726 -0.41593,4.70379c-0.01432,0.16444 -0.35895,4.12683 -0.51649,5.9326c0.09235,1.92941 0.04998,4.05978 -0.11968,6.61681c-0.04466,0.61766 -0.11585,1.22983 -0.21334,1.83097c1.21507,1.85051 2.22034,3.76956 3.04169,5.73306c0.9303,1.93633 1.6926,4.09096 2.33619,6.5746c0.31062,1.17026 0.51196,2.3611 0.60203,3.55168c0.65712,8.3279 0.30244,13.51769 -1.39417,18.17489z" fill="#b200ff" stroke="#ffffff" stroke-width="9"/><path d="M257.84326,154.65249c0.39309,4.96058 0.31262,8.15764 -0.23613,9.59793c-2.28351,6.5591 -9.95515,10.67681 -23.01223,12.35716c-4.40735,0.56057 -8.81206,-1.55897 -13.21944,-6.35863c0,0.72013 0.15699,2.87925 0.47362,6.48001c0.23613,2.63918 0.19588,4.7983 -0.11808,6.47729c-1.96822,1.27937 -3.54067,1.92039 -4.72131,1.92039c-1.81125,0 -2.7142,-1.79901 -2.7142,-5.39978c0,-0.63968 0.03891,-1.65854 0.11808,-3.05792c0.0778,-1.39802 0.11808,-2.37867 0.11808,-2.93924c0,-1.35984 -0.11808,-2.31867 -0.35421,-2.87925v-6.59867c0,-0.15959 0.03891,-0.33963 0.11808,-0.54012c0.0778,-0.19913 0.15699,-0.37917 0.23615,-0.54009c-0.07916,-1.11842 -0.04025,-2.83834 0.11805,-5.15838c0.15699,-1.44029 0.15699,-2.35824 0,-2.75923c-0.39446,-0.79788 -0.589,-1.278 -0.589,-1.43893c0.31259,-2.23956 1.92799,-3.35934 4.83805,-3.35934c1.88772,0 3.02813,0.68062 3.42259,2.03907c0,1.27937 0.15696,3.16021 0.47226,5.63845c0.47359,2.87925 1.96691,5.75985 4.48521,8.63774c2.75309,3.28026 5.38813,4.79966 7.90777,4.5596c2.83226,-0.31781 5.66451,-0.9984 8.49677,-2.03907c3.93376,-1.44029 6.29373,-3.11928 7.08131,-5.03833c0.54875,-1.44029 0.82513,-2.95836 0.82513,-4.5596c0,-4.87741 -1.76966,-8.51769 -5.31033,-10.91684c-1.5751,-1.03931 -4.48518,-1.87948 -8.73423,-2.52053c-2.43914,-0.31781 -3.9351,-0.48012 -4.48384,-0.48012c-3.77677,0.08048 -7.29866,-1.15935 -10.56292,-3.71942c-3.2656,-2.55874 -4.89707,-5.51982 -4.89707,-8.87916v-6.95738c0,-1.51804 0.86538,-5.07787 2.59746,-10.67681c0.78487,-2.64055 1.21822,-4.03857 1.29872,-4.19952c0.70705,-1.67899 1.61136,-2.79877 2.71287,-3.35934c2.67393,-1.35848 5.50618,-2.03907 8.49674,-2.03907c5.8215,0 10.10944,2.39915 12.8639,7.19742c0.23613,0.24004 0.62925,0.60014 1.18067,1.08024c0.0778,-1.11842 0.23615,-2.83834 0.47226,-5.15838c-0.07916,-1.03931 -0.15833,-2.03907 -0.23613,-2.99926c0,-1.11842 0.54875,-1.87812 1.65159,-2.27913c0.31396,-0.15959 0.74732,-0.2796 1.29872,-0.36008c0.78621,-0.15959 1.63281,0.04091 2.53844,0.59875c0.90295,0.56057 1.27727,2.24093 1.12031,5.03833c-0.07916,1.75946 -0.23615,4.23909 -0.47228,7.43748c-0.23613,2.64055 -0.589,6.67914 -1.06259,12.11846c0.15699,1.27937 0.15699,3.0402 0,5.27839c-0.39446,1.5194 -1.5751,2.27913 -3.54067,2.27913c-1.0237,0 -2.00579,-0.2796 -2.95033,-0.83881c-0.47226,-1.51804 -0.70705,-2.16045 -0.70705,-1.92041c0.15563,-2.15909 -0.27638,-5.03833 -1.29872,-8.63774c-0.86671,-1.83858 -2.06485,-4.45731 -3.59969,-7.85758c-1.53485,-3.39889 -3.56078,-5.21974 -6.07774,-5.45977c-3.14755,-0.24004 -5.19226,0.84015 -6.13677,3.2393c-0.31396,1.04067 -0.74866,2.56146 -1.29741,4.55962c-0.94454,2.95972 -1.53487,5.7994 -1.771,8.51769c-0.07916,0.88111 -0.1583,1.24116 -0.23613,1.08024c0.23613,1.60124 0.51117,3.19978 0.82646,4.79966c0.39309,1.99953 1.35777,3.52032 2.89128,4.55826c1.53485,1.04067 4.46371,1.67899 8.79192,1.91903c10.62064,0.64241 17.18941,4.4014 19.70771,11.27831c0.39178,0.64105 0.7849,1.7199 1.17933,3.23796z" fill="#ffffff" stroke="none" stroke-width="1"/></g><text transform="translate(148.86884,237.93744) scale(1.23697,1.23697)" font-size="22" xml:space="preserve" fill="#ffffff" fill-rule="nonzero" stroke="none" stroke-width="1" stroke-linecap="butt" stroke-linejoin="miter" stroke-miterlimit="10" stroke-dasharray="" stroke-dashoffset="0" font-family="Scratch" font-weight="400" text-anchor="start" style="mix-blend-mode: normal"><tspan x="0" dy="0">The Scratch Nitro</tspan><tspan x="0" dy="26.4px"> Browser Addon</tspan></text></g></g></svg>